<svg width="46" height="48" viewBox="0 0 46 48" fill="none" xmlns="http://www.w3.org/2000/svg">
<g clip-path="url(#clip0_6_6675)">
<path d="M25.7725 45.9973H26.4697C26.5612 46.9286 25.9831 47.4874 25.3779 47.7668L25.2686 47.6272C25.4335 47.4499 25.5892 47.0218 25.5801 46.4631H21.334C21.3249 47.0221 21.4814 47.4501 21.6465 47.6272L21.5361 47.7668C20.9309 47.4874 20.3529 46.9286 20.4443 45.9973H21.1504L23.251 39.8489H23.5254L25.7725 45.9973ZM33.959 42.6711L34.9219 39.9417H35.417L33.748 44.6653C33.2988 45.9224 32.7118 46.5552 31.9785 46.5559C31.3183 46.5559 30.9054 45.997 30.9053 45.345C30.9054 44.2926 31.6756 43.4163 32.5742 43.4163C32.6932 43.4163 32.8129 43.4357 32.9229 43.4729L31.0332 39.9417H32.5557L33.959 42.6711ZM37.0459 39.8489C38.1463 39.849 38.6239 40.5291 38.624 41.2463C38.6238 41.7865 38.256 42.2617 37.8525 42.5227C38.5954 42.8672 38.9443 43.603 38.9443 44.3391C38.9442 45.4663 38.1832 46.5557 36.7803 46.5559C35.6067 46.5555 35.1475 45.8108 35.1475 45.0559C35.1475 44.7304 35.2581 44.4138 35.4688 44.1438L35.8262 44.386C35.6797 44.6003 35.6154 44.8235 35.6152 45.0374C35.6153 45.6337 35.9827 46.091 36.707 46.0911C37.4863 46.0909 37.8072 45.4659 37.8164 44.7766C37.8255 43.8452 37.3759 43.0354 36.5781 43.0354C36.5141 43.0354 36.4501 43.0446 36.377 43.054L36.2939 42.7649C36.9908 42.4574 37.3846 41.9074 37.3848 41.302C37.3846 40.7712 37.1003 40.4817 36.6328 40.4817C36.2203 40.4821 35.7992 40.8275 35.7441 41.5256L35.2305 41.4143C35.4047 40.427 36.2297 39.8491 37.0459 39.8489ZM5.05762 45.9368L7.0166 39.8489H7.29004L9.68457 46.4631H8.23633L6.7041 42.1965L5.34668 46.4631H3.80664L3.58691 45.8577H0.972656L0.771484 46.4631H0.275391L2.49512 39.8489H2.77051L5.05762 45.9368ZM13.8115 41.1995H13.5645C13.3444 40.5755 12.7567 40.3704 12.0781 40.3704H11.4824V41.6741H11.8125C12.3166 41.674 12.573 41.5159 12.7656 41.0784H13.0039V42.6624H12.7656C12.573 42.2245 12.3166 42.056 11.8125 42.0559H11.4824V46.0344H12.0225C12.5452 46.0344 13.426 45.7729 13.7012 44.9905H13.958L13.7842 46.4631H10.1621V39.9417H13.7012L13.8115 41.1995ZM18.0781 46.4631H16.7568V42.8762L14.4922 46.4631H13.96L15.7939 43.5559C15.3812 43.3138 14.7482 42.9132 14.748 41.8049C14.7482 40.8084 15.3723 39.9418 16.9492 39.9417H18.0781V46.4631ZM30.7129 39.9417C30.722 39.9881 30.7217 40.0163 30.7217 40.0999C30.7217 41.1991 29.5662 42.308 28.2363 42.634V46.4631H26.916V39.9417H30.7129ZM45.3369 39.9417C45.4104 40.9384 44.5858 41.8431 43.5312 42.2903C44.9614 42.8959 45.7683 44.5537 45.6309 46.4631H41.541V39.9417H45.3369ZM40.6855 39.9426L40.2441 41.2922H40.6807L40.6816 46.4622H39.5371V39.9417L40.6855 39.9426ZM32.6016 43.8831C31.9323 43.8832 31.4181 44.5252 31.418 45.3538C31.418 45.7637 31.6117 46.0989 31.9785 46.0989C32.5101 46.0986 32.9226 45.6051 33.3076 44.5159L33.3262 44.4504C33.2526 44.1058 32.9773 43.8831 32.6016 43.8831ZM21.6084 46.0247H24.3418L22.9395 42.094L21.6084 46.0247ZM42.8613 46.0159H43.3652C44.1999 46.0159 44.5849 45.3726 44.585 44.637C44.5849 43.7429 43.9524 42.709 42.8613 42.5227V46.0159ZM1.11914 45.4104H3.42188L2.20215 42.1311L1.11914 45.4104ZM28.2363 42.261C29.0892 42.0187 29.4849 41.3949 29.4941 40.3889H28.2363V42.261ZM42.8613 42.1692C43.7418 41.9456 44.1628 41.3669 44.1445 40.3889H42.8613V42.1692ZM16.7568 40.3704C15.9592 40.3797 15.5743 40.7059 15.5742 41.1995C15.5744 41.6837 16.0509 42.0186 16.7568 42.0374V40.3704ZM30.9277 14.7698L32.3682 14.7708L30.9277 18.6448V27.592H33.8926L35.4648 24.8215L39.6494 24.8186V24.8167L38.0732 22.0413V22.0383H36.9336L38.3506 19.5461H35.9619L40.9951 13.6213L33.5674 15.1682L35.9502 11.0374H43.1973V8.32153H45.7305L44.7256 11.0374H45.4395L41.375 22.0383L42.3008 22.0413V24.8167L43.6709 24.8157V27.593L40.9355 27.594L39.3584 30.3694H36.6133V33.1438H9.22949V30.3694H6.50586L4.90527 27.594H7.58984L5.96582 23.2454L3.50488 21.801L2.03711 15.7219L2.48926 13.9397L1.83203 12.1799H2.93555L3.93555 8.24829L8.95312 4.64771V5.57446L4.56738 8.6936L3.68164 12.179L7.76562 12.178L6.51953 8.80884H9.66016V12.177L9.65918 12.178H11.1025V27.593H18.4775L13.2041 13.4768L18.3604 13.4749V13.4729L17.1133 10.1047L20.2539 10.1038V13.4739H21.6973V16.1614H22.0625L22.0635 0.532471L23.2441 3.25024H22.6094V16.1614H23.874L22.7686 18.1301H22.6094V27.593H24.3936V14.7688H25.8584V11.3997L28.999 11.4006L27.7529 14.7678V14.7688L30.3809 14.7698V3.09497H29.7461L30.9277 0.376221V14.7698ZM21.6973 27.593H22.0625V18.1301H21.6973V27.593ZM27.5986 27.592H30.3809V20.1135L27.5986 27.592ZM2.78125 15.7258L4.13184 21.3235L5.56055 22.1614L2.93262 15.1262L2.78125 15.7258Z" fill="#17120E"/>
</g>
<defs>
<clipPath id="clip0_6_6675">
<rect width="46" height="48" fill="white"/>
</clipPath>
</defs>
</svg>


